<?xml version="1.0" encoding="UTF-8" standalone="no"?>
<svg width="150px" height="150px" viewBox="0 0 150 150" version="1.1" xmlns="http://www.w3.org/2000/svg" xmlns:xlink="http://www.w3.org/1999/xlink" xmlns:sketch="http://www.bohemiancoding.com/sketch/ns">
    <title>icon</title>
    <description>Created with Sketch (http://www.bohemiancoding.com/sketch)</description>
    <defs></defs>
    <g id="Page-1" stroke="none" stroke-width="1" fill="none" fill-rule="evenodd" sketch:type="MSPage">
        <g id="Landing-" sketch:type="MSArtboardGroup" transform="translate(-465.000000, -76.000000)">
            <g id="icon" sketch:type="MSLayerGroup" transform="translate(465.000000, 76.000000)">
                <rect id="Rectangle-6" fill="#F6F6F6" sketch:type="MSShapeGroup" x="0" y="0" width="150" height="150" rx="8"></rect>
                <path d="M57.07,62.54 C56.0833284,63.8466732 54.2033472,65.6866548 51.43,68.06 L50.95,67.66 C52.6033416,65.6866568 53.863329,63.9533408 54.73,62.46 C55.596671,60.9666592 56.5366616,58.9133464 57.55,56.3 L60.51,57.82 C60.8300016,58.0066676 60.99,58.1866658 60.99,58.36 C60.99,58.5333342 60.8366682,58.6399998 60.53,58.68 C60.2233318,58.7200002 59.8966684,58.9266648 59.55,59.3 C59.2033316,59.6733352 58.69667,60.3533284 58.03,61.34 L65.63,61.34 L67.75,58.94 L70.11,61.74 C70.3500012,61.9800012 70.47,62.1733326 70.47,62.32 C70.47,62.4666674 70.2566688,62.54 69.83,62.54 L60.35,62.54 C61.4700056,63.1533364 62.2166648,63.6799978 62.59,64.12 C62.9633352,64.5600022 63.15,65.0533306 63.15,65.6 C63.15,66.1466694 62.983335,66.6466644 62.65,67.1 C62.316665,67.5533356 61.916669,67.78 61.45,67.78 C60.983331,67.78 60.6700008,67.6666678 60.51,67.44 C60.3499992,67.2133322 60.27,66.7533368 60.27,66.06 C60.27,64.7533268 59.93667,63.5800052 59.27,62.54 L57.07,62.54 Z M42.47,62.54 C40.8166584,64.7266776 38.4833484,67.0733208 35.47,69.58 L35.03,69.06 C38.7100184,64.793312 41.3633252,60.6066872 42.99,56.5 L46.07,58.02 C46.4166684,58.153334 46.59,58.3133324 46.59,58.5 C46.59,58.6866676 46.3966686,58.8333328 46.01,58.94 C45.6233314,59.0466672 45.2833348,59.2266654 44.99,59.48 C44.6966652,59.7333346 44.4233346,60.026665 44.17,60.36 C43.9166654,60.693335 43.656668,61.0199984 43.39,61.34 L49.27,61.34 L51.43,59.02 L53.87,61.94 C54.003334,62.073334 54.07,62.206666 54.07,62.34 C54.07,62.473334 53.9100016,62.54 53.59,62.54 L45.99,62.54 C46.6833368,62.940002 47.3033306,63.3799976 47.85,63.86 C48.3966694,64.3400024 48.67,64.8533306 48.67,65.4 C48.67,65.9466694 48.4833352,66.4399978 48.11,66.88 C47.7366648,67.3200022 47.3433354,67.54 46.93,67.54 C46.5166646,67.54 46.243334,67.4333344 46.11,67.22 C45.976666,67.0066656 45.91,66.6600024 45.91,66.18 C45.91,64.9266604 45.5633368,63.7133392 44.87,62.54 L42.47,62.54 Z M42.59,66.62 C45.7100156,67.95334 47.27,69.2333272 47.27,70.46 C47.27,71.12667 47.0833352,71.6799978 46.71,72.12 C46.3366648,72.5600022 46.0033348,72.78 45.71,72.78 C45.4166652,72.78 45.1766676,72.646668 44.99,72.38 C44.8033324,72.113332 44.6633338,71.6866696 44.57,71.1 C44.4766662,70.5133304 44.2900014,69.953336 44.01,69.42 C43.7299986,68.886664 43.1366712,68.1266716 42.23,67.14 L42.59,66.62 Z M68.11,69.5 C68.4033348,69.7400012 68.55,69.9399992 68.55,70.1 C68.55,70.2600008 68.3900016,70.4466656 68.07,70.66 L67.11,71.3 L67.11,88.98 C67.11,89.8333376 66.9566682,90.4999976 66.65,90.98 C66.3433318,91.4600024 65.6500054,92.03333 64.57,92.7 C63.4899946,93.36667 62.8566676,93.7 62.67,93.7 C62.4833324,93.7 62.3366672,93.500002 62.23,93.1 C62.0433324,92.1933288 61.6566696,91.5333354 61.07,91.12 C60.4833304,90.7066646 59.52334,90.3133352 58.19,89.94 L58.31,89.26 C60.176676,89.5000012 61.4966628,89.62 62.27,89.62 C63.0433372,89.62 63.5899984,89.520001 63.91,89.32 C64.2300016,89.119999 64.39,88.6600036 64.39,87.94 L64.39,70.42 L53.87,70.42 C52.7766612,70.42 51.8833368,70.553332 51.19,70.82 L49.75,69.1 C50.7633384,69.2600008 51.8566608,69.34 53.03,69.34 L64.43,69.34 L65.75,67.66 L68.11,69.5 Z M42.91,74.66 L42.11,75.14 L42.11,84.58 C42.11,86.7933444 42.1299998,88.4466612 42.17,89.54 C42.2100002,90.6333388 42.23,91.2199996 42.23,91.3 C42.23,91.8066692 41.8700036,92.259998 41.15,92.66 C40.4299964,93.060002 39.936668,93.26 39.67,93.26 C39.403332,93.26 39.27,92.9800028 39.27,92.42 L39.43,88.58 C39.5100004,86.7399908 39.55,85.1000072 39.55,83.66 L39.55,78.3 C39.55,75.7133204 39.4966672,73.6733408 39.39,72.18 L42.71,73.82 C43.0300016,73.9266672 43.19,74.0533326 43.19,74.2 C43.19,74.3466674 43.0966676,74.4999992 42.91,74.66 Z M50.07,74.58 L57.03,74.58 L58.19,73.14 L60.75,74.9 C60.9633344,75.033334 61.07,75.1799992 61.07,75.34 C61.07,75.5000008 60.9766676,75.646666 60.79,75.78 L59.91,76.34 L59.91,81.98 C59.91,82.9400048 59.9366664,83.8066628 59.99,84.58 L60.11,86.46 C60.11,86.9666692 59.77667,87.3933316 59.11,87.74 C58.44333,88.0866684 57.9900012,88.26 57.75,88.26 C57.5099988,88.26 57.39,88.0866684 57.39,87.74 L57.39,86.62 L49.79,86.62 L49.79,87.38 C49.79,87.8333356 49.7100008,88.1533324 49.55,88.34 C49.3899992,88.5266676 49.0366694,88.7399988 48.49,88.98 C47.9433306,89.2200012 47.5500012,89.34 47.31,89.34 C47.0699988,89.34 46.95,89.1800016 46.95,88.86 C46.95,88.5399984 46.9633332,88.246668 46.99,87.98 C47.256668,86.0599904 47.39,84.10001 47.39,82.1 L47.39,77.9 C47.39,76.1399912 47.3500004,74.5000076 47.27,72.98 L50.07,74.58 Z M57.39,79.62 L57.39,75.74 L49.79,75.74 L49.79,79.62 L57.39,79.62 Z M57.39,85.5 L57.39,80.7 L49.79,80.7 L49.79,85.5 L57.39,85.5 Z M107.25,90.3 L82.57,90.3 L82.57,91.34 C82.57,91.7133352 82.4900008,91.9933324 82.33,92.18 C82.1699992,92.3666676 81.7700032,92.6066652 81.13,92.9 C80.4899968,93.1933348 80.0633344,93.34 79.85,93.34 C79.6366656,93.34 79.496667,93.2466676 79.43,93.06 C79.363333,92.8733324 79.3566664,92.5000028 79.41,91.94 C79.676668,89.006652 79.81,86.0600148 79.81,83.1 L79.81,63.02 C79.81,60.5133208 79.743334,58.6466728 79.61,57.42 L82.61,59.3 L107.25,59.3 L108.65,57.5 L111.25,59.7 C111.410001,59.8866676 111.49,60.046666 111.49,60.18 C111.49,60.313334 111.410001,60.4199996 111.25,60.5 L109.97,61.14 L109.97,82.7 C109.97,85.2066792 110.063332,87.259992 110.25,88.86 L110.45,91.26 C110.45,91.5800016 110.036671,91.973331 109.21,92.44 C108.383329,92.906669 107.850001,93.14 107.61,93.14 C107.369999,93.14 107.25,92.9533352 107.25,92.58 L107.25,90.3 Z M82.57,89.22 L107.25,89.22 L107.25,60.42 L82.57,60.42 L82.57,89.22 Z M96.49,71.94 C98.8366784,73.5933416 102.276644,74.7133304 106.81,75.3 L106.81,75.82 C105.343326,76.1133348 104.396669,76.7533284 103.97,77.74 C103.836666,78.006668 103.650001,78.14 103.41,78.14 C103.063332,78.14 101.936676,77.6533382 100.03,76.68 C98.1233238,75.7066618 96.4766736,74.5800064 95.09,73.3 C91.7833168,76.2866816 87.9033556,78.513326 83.45,79.98 L83.25,79.42 C87.516688,77.1799888 91.0233196,74.6866804 93.77,71.94 C92.43666,70.4199924 91.4500032,68.6733432 90.81,66.7 C88.676656,69.3133464 86.5166776,71.4466584 84.33,73.1 L83.89,72.74 C87.0633492,69.539984 89.3966592,65.5800236 90.89,60.86 L94.25,62.1 C94.4900012,62.2066672 94.61,62.3199994 94.61,62.44 C94.61,62.5600006 94.4966678,62.6666662 94.27,62.76 C94.0433322,62.8533338 93.7500018,63.0733316 93.39,63.42 C93.0299982,63.7666684 92.7300012,64.139998 92.49,64.54 L98.69,64.54 L100.17,62.82 L102.81,65.06 C103.050001,65.2733344 103.17,65.4733324 103.17,65.66 C103.17,65.8466676 102.903336,65.9533332 102.37,65.98 C101.836664,66.0066668 101.316669,66.3399968 100.81,66.98 C99.4499932,68.7933424 98.0100076,70.4466592 96.49,71.94 Z M91.25,66.14 C92.4233392,67.9533424 93.6499936,69.4733272 94.93,70.7 C96.2366732,69.3133264 97.5699932,67.6466764 98.93,65.7 L91.61,65.7 C91.4499992,65.9133344 91.3300004,66.0599996 91.25,66.14 Z M92.97,75.58 C94.170006,75.980002 95.2166622,76.5266632 96.11,77.22 C97.0033378,77.9133368 97.45,78.5333306 97.45,79.08 C97.45,79.6266694 97.2300022,80.1866638 96.79,80.76 C96.3499978,81.3333362 95.930002,81.62 95.53,81.62 C95.129998,81.62 94.8233344,81.1133384 94.61,80.1 C94.2899984,78.6866596 93.5833388,77.3266732 92.49,76.02 L92.97,75.58 Z M88.05,82.82 C90.4766788,82.8733336 92.556658,83.0399986 94.29,83.32 C96.023342,83.6000014 97.3033292,83.8999984 98.13,84.22 C98.9566708,84.5400016 99.5099986,84.8933314 99.79,85.28 C100.070001,85.6666686 100.21,86.2866624 100.21,87.14 C100.21,87.9933376 100.043335,88.42 99.71,88.42 C99.376665,88.42 98.7700044,88.1666692 97.89,87.66 C94.7433176,85.8466576 91.4100176,84.4200052 87.89,83.38 L88.05,82.82 Z" id="简图" fill="#434343" sketch:type="MSShapeGroup"></path>
            </g>
        </g>
    </g>
</svg>